STARTFONT 2.1
FONT -Misc-Fixed-Medium-R-Normal--6-60-75-75-C-50-ISO10646-1
SIZE 6 75 75
FONTBOUNDINGBOX 4 6 0 -1
STARTPROPERTIES 13
FOUNDRY "Misc"
FAMILY_NAME "Fixed"
WEIGHT_NAME "Medium"
SLANT "R"
SETWIDTH_NAME "Normal"
ADD_STYLE_NAME ""
PIXEL_SIZE 6
POINT_SIZE 60
RESOLUTION_X 75
RESOLUTION_Y 75
SPACING "C"
AVERAGE_WIDTH 50
CHARSET_REGISTRY "ISO10646"
ENDPROPERTIES
CHARS 256
STARTCHAR U+0000
ENCODING 0
SWIDTH 333 0
DWIDTH 4 0
BBX 0 0 0 0
BITMAP
00
00
00
00
00
00
ENDCHAR
STARTCHAR U+0020
ENCODING 32
SWIDTH 333 0
DWIDTH 4 0
BBX 0 0 0 0
BITMAP
00
00
00
00
00
00
ENDCHAR
STARTCHAR U+0021
ENCODING 33
SWIDTH 333 0
DWIDTH 4 0
BBX 1 5 0 -1
BITMAP
40
40
40
00
40
00
ENDCHAR
STARTCHAR U+0022
ENCODING 34
SWIDTH 333 0
DWIDTH 4 0
BBX 3 2 0 4
BITMAP
A0
A0
00
00
00
00
ENDCHAR
STARTCHAR U+0023
ENCODING 35
SWIDTH 333 0
DWIDTH 4 0
BBX 4 5 0 0
BITMAP
A8
A8
F8
A8
A8
00
ENDCHAR
STARTCHAR U+0024
ENCODING 36
SWIDTH 333 0
DWIDTH 4 0
BBX 4 5 0 -1
BITMAP
40
F8
40
F8
40
00
ENDCHAR
STARTCHAR U+0025
ENCODING 37
SWIDTH 333 0
DWIDTH 4 0
BBX 4 5 0 0
BITMAP
C8
90
60
18
28
00
ENDCHAR
STARTCHAR U+0026
ENCODING 38
SWIDTH 333 0
DWIDTH 4 0
BBX 4 5 0 0
BITMAP
60
90
90
60
94
00
ENDCHAR
STARTCHAR U+0027
ENCODING 39
SWIDTH 333 0
DWIDTH 4 0
BBX 1 2 0 4
BITMAP
40
40
00
00
00
00
ENDCHAR
STARTCHAR U+0028
ENCODING 40
SWIDTH 333 0
DWIDTH 4 0
BBX 2 5 0 -1
BITMAP
40
80
80
40
00
00
ENDCHAR
STARTCHAR U+0029
ENCODING 41
SWIDTH 333 0
DWIDTH 4 0
BBX 2 5 0 -1
BITMAP
80
40
40
80
00
00
ENDCHAR
STARTCHAR U+002A
ENCODING 42
SWIDTH 333 0
DWIDTH 4 0
BBX 3 3 0 3
BITMAP
A0
40
A0
00
00
00
ENDCHAR
STARTCHAR U+002B
ENCODING 43
SWIDTH 333 0
DWIDTH 4 0
BBX 3 3 0 2
BITMAP
40
E0
40
00
00
00
ENDCHAR
STARTCHAR U+002C
ENCODING 44
SWIDTH 333 0
DWIDTH 4 0
BBX 2 2 0 -1
BITMAP
80
40
00
00
00
00
ENDCHAR
STARTCHAR U+002D
ENCODING 45
SWIDTH 333 0
DWIDTH 4 0
BBX 2 1 0 2
BITMAP
C0
00
00
00
00
00
ENDCHAR
STARTCHAR U+002E
ENCODING 46
SWIDTH 333 0
DWIDTH 4 0
BBX 1 1 0 0
BITMAP
80
00
00
00
00
00
ENDCHAR
STARTCHAR U+002F
ENCODING 47
SWIDTH 333 0
DWIDTH 4 0
BBX 4 5 0 0
BITMAP
10
20
40
80
80
00
ENDCHAR
STARTCHAR U+0030
ENCODING 48
SWIDTH 333 0
DWIDTH 4 0
BBX 4 5 0 0
BITMAP
E0
98
98
98
E0
00
ENDCHAR
STARTCHAR U+0031
ENCODING 49
SWIDTH 333 0
DWIDTH 4 0
BBX 3 5 0 0
BITMAP
40
C0
40
40
E0
00
ENDCHAR
STARTCHAR U+0032
ENCODING 50
SWIDTH 333 0
DWIDTH 4 0
BBX 4 5 0 0
BITMAP
E0
18
E0
80
F8
00
ENDCHAR
STARTCHAR U+0033
ENCODING 51
SWIDTH 333 0
DWIDTH 4 0
BBX 4 5 0 0
BITMAP
F8
18
60
18
F8
00
ENDCHAR
STARTCHAR U+0034
ENCODING 52
SWIDTH 333 0
DWIDTH 4 0
BBX 4 5 0 0
BITMAP
20
60
A0
F8
20
00
ENDCHAR
STARTCHAR U+0035
ENCODING 53
SWIDTH 333 0
DWIDTH 4 0
BBX 4 5 0 0
BITMAP
F8
80
E0
18
F0
00
ENDCHAR
STARTCHAR U+0036
ENCODING 54
SWIDTH 333 0
DWIDTH 4 0
BBX 4 5 0 0
BITMAP
E0
80
E0
98
E0
00
ENDCHAR
STARTCHAR U+0037
ENCODING 55
SWIDTH 333 0
DWIDTH 4 0
BBX 4 5 0 0
BITMAP
F8
18
20
40
80
00
ENDCHAR
STARTCHAR U+0038
ENCODING 56
SWIDTH 333 0
DWIDTH 4 0
BBX 4 5 0 0
BITMAP
E0
98
E0
98
E0
00
ENDCHAR
STARTCHAR U+0039
ENCODING 57
SWIDTH 333 0
DWIDTH 4 0
BBX 4 5 0 0
BITMAP
E0
98
70
18
F0
00
ENDCHAR
STARTCHAR U+003A
ENCODING 58
SWIDTH 333 0
DWIDTH 4 0
BBX 1 3 0 2
BITMAP
80
00
80
00
00
00
ENDCHAR
STARTCHAR U+003B
ENCODING 59
SWIDTH 333 0
DWIDTH 4 0
BBX 2 4 0 -1
BITMAP
80
00
80
40
00
00
ENDCHAR
STARTCHAR U+003C
ENCODING 60
SWIDTH 333 0
DWIDTH 4 0
BBX 3 3 0 2
BITMAP
20
40
80
00
00
00
ENDCHAR
STARTCHAR U+003D
ENCODING 61
SWIDTH 333 0
DWIDTH 4 0
BBX 4 2 0 2
BITMAP
F8
00
F8
00
00
00
ENDCHAR
STARTCHAR U+003E
ENCODING 62
SWIDTH 333 0
DWIDTH 4 0
BBX 3 3 0 2
BITMAP
80
40
20
00
00
00
ENDCHAR
STARTCHAR U+003F
ENCODING 63
SWIDTH 333 0
DWIDTH 4 0
BBX 4 5 0 0
BITMAP
E0
18
20
00
20
00
ENDCHAR
STARTCHAR U+0040
ENCODING 64
SWIDTH 333 0
DWIDTH 4 0
BBX 4 5 0 0
BITMAP
E0
98
B8
80
F0
00
ENDCHAR
STARTCHAR U+0041
ENCODING 65
SWIDTH 333 0
DWIDTH 4 0
BBX 4 5 0 0
BITMAP
E0
98
98
F8
98
00
ENDCHAR
STARTCHAR U+0042
ENCODING 66
SWIDTH 333 0
DWIDTH 4 0
BBX 4 5 0 0
BITMAP
D8
98
E0
98
D8
00
ENDCHAR
STARTCHAR U+0043
ENCODING 67
SWIDTH 333 0
DWIDTH 4 0
BBX 4 5 0 0
BITMAP
E0
98
80
98
E0
00
ENDCHAR
STARTCHAR U+0044
ENCODING 68
SWIDTH 333 0
DWIDTH 4 0
BBX 4 5 0 0
BITMAP
D8
98
98
98
D8
00
ENDCHAR
STARTCHAR U+0045
ENCODING 69
SWIDTH 333 0
DWIDTH 4 0
BBX 4 5 0 0
BITMAP
F8
80
C0
80
F8
00
ENDCHAR
STARTCHAR U+0046
ENCODING 70
SWIDTH 333 0
DWIDTH 4 0
BBX 4 5 0 0
BITMAP
F8
80
C0
80
80
00
ENDCHAR
STARTCHAR U+0047
ENCODING 71
SWIDTH 333 0
DWIDTH 4 0
BBX 4 5 0 0
BITMAP
E0
80
B8
98
E8
00
ENDCHAR
STARTCHAR U+0048
ENCODING 72
SWIDTH 333 0
DWIDTH 4 0
BBX 4 5 0 0
BITMAP
98
98
F8
98
98
00
ENDCHAR
STARTCHAR U+0049
ENCODING 73
SWIDTH 333 0
DWIDTH 4 0
BBX 3 5 0 0
BITMAP
E0
40
40
40
E0
00
ENDCHAR
STARTCHAR U+004A
ENCODING 74
SWIDTH 333 0
DWIDTH 4 0
BBX 4 5 0 0
BITMAP
18
18
98
98
60
00
ENDCHAR
STARTCHAR U+004B
ENCODING 75
SWIDTH 333 0
DWIDTH 4 0
BBX 4 5 0 0
BITMAP
98
A8
D0
A8
98
00
ENDCHAR
STARTCHAR U+004C
ENCODING 76
SWIDTH 333 0
DWIDTH 4 0
BBX 3 5 0 0
BITMAP
80
80
80
80
E0
00
ENDCHAR
STARTCHAR U+004D
ENCODING 77
SWIDTH 333 0
DWIDTH 4 0
BBX 4 5 0 0
BITMAP
98
B8
B8
A8
98
00
ENDCHAR
STARTCHAR U+004E
ENCODING 78
SWIDTH 333 0
DWIDTH 4 0
BBX 4 5 0 0
BITMAP
98
D8
B8
A8
98
00
ENDCHAR
STARTCHAR U+004F
ENCODING 79
SWIDTH 333 0
DWIDTH 4 0
BBX 4 5 0 0
BITMAP
E0
98
98
98
E0
00
ENDCHAR
STARTCHAR U+0050
ENCODING 80
SWIDTH 333 0
DWIDTH 4 0
BBX 4 5 0 0
BITMAP
F0
98
98
F0
80
00
ENDCHAR
STARTCHAR U+0051
ENCODING 81
SWIDTH 333 0
DWIDTH 4 0
BBX 4 6 0 0
BITMAP
E0
98
98
98
E0
30
ENDCHAR
STARTCHAR U+0052
ENCODING 82
SWIDTH 333 0
DWIDTH 4 0
BBX 4 5 0 0
BITMAP
F0
98
98
F0
98
00
ENDCHAR
STARTCHAR U+0053
ENCODING 83
SWIDTH 333 0
DWIDTH 4 0
BBX 4 5 0 0
BITMAP
70
88
60
28
F0
00
ENDCHAR
STARTCHAR U+0054
ENCODING 84
SWIDTH 333 0
DWIDTH 4 0
BBX 3 5 0 0
BITMAP
E0
40
40
40
40
00
ENDCHAR
STARTCHAR U+0055
ENCODING 85
SWIDTH 333 0
DWIDTH 4 0
BBX 4 5 0 0
BITMAP
98
98
98
98
E0
00
ENDCHAR
STARTCHAR U+0056
ENCODING 86
SWIDTH 333 0
DWIDTH 4 0
BBX 4 5 0 0
BITMAP
98
98
98
60
40
00
ENDCHAR
STARTCHAR U+0057
ENCODING 87
SWIDTH 333 0
DWIDTH 4 0
BBX 4 5 0 0
BITMAP
98
A8
B8
B8
60
00
ENDCHAR
STARTCHAR U+0058
ENCODING 88
SWIDTH 333 0
DWIDTH 4 0
BBX 4 5 0 0
BITMAP
98
98
60
98
98
00
ENDCHAR
STARTCHAR U+0059
ENCODING 89
SWIDTH 333 0
DWIDTH 4 0
BBX 4 5 0 0
BITMAP
98
98
60
40
40
00
ENDCHAR
STARTCHAR U+005A
ENCODING 90
SWIDTH 333 0
DWIDTH 4 0
BBX 4 5 0 0
BITMAP
F8
18
30
60
F8
00
ENDCHAR
STARTCHAR U+005B
ENCODING 91
SWIDTH 333 0
DWIDTH 4 0
BBX 2 5 0 -1
BITMAP
C0
80
80
80
C0
00
ENDCHAR
STARTCHAR U+005C
ENCODING 92
SWIDTH 333 0
DWIDTH 4 0
BBX 4 5 0 0
BITMAP
80
80
40
20
10
00
ENDCHAR
STARTCHAR U+005D
ENCODING 93
SWIDTH 333 0
DWIDTH 4 0
BBX 2 5 0 -1
BITMAP
60
20
20
20
60
00
ENDCHAR
STARTCHAR U+005E
ENCODING 94
SWIDTH 333 0
DWIDTH 4 0
BBX 3 2 0 4
BITMAP
40
A0
00
00
00
00
ENDCHAR
STARTCHAR U+005F
ENCODING 95
SWIDTH 333 0
DWIDTH 4 0
BBX 4 1 0 0
BITMAP
F8
00
00
00
00
00
ENDCHAR
STARTCHAR U+0060
ENCODING 96
SWIDTH 333 0
DWIDTH 4 0
BBX 2 2 0 4
BITMAP
C0
60
00
00
00
00
ENDCHAR
STARTCHAR U+0061
ENCODING 97
SWIDTH 333 0
DWIDTH 4 0
BBX 4 4 0 0
BITMAP
60
98
98
F0
00
00
ENDCHAR
STARTCHAR U+0062
ENCODING 98
SWIDTH 333 0
DWIDTH 4 0
BBX 4 5 0 0
BITMAP
80
80
B0
C8
B0
00
ENDCHAR
STARTCHAR U+0063
ENCODING 99
SWIDTH 333 0
DWIDTH 4 0
BBX 4 3 0 1
BITMAP
70
88
88
00
00
00
ENDCHAR
STARTCHAR U+0064
ENCODING 100
SWIDTH 333 0
DWIDTH 4 0
BBX 4 5 0 0
BITMAP
18
18
68
98
68
00
ENDCHAR
STARTCHAR U+0065
ENCODING 101
SWIDTH 333 0
DWIDTH 4 0
BBX 4 4 0 0
BITMAP
60
B8
80
F0
00
00
ENDCHAR
STARTCHAR U+0066
ENCODING 102
SWIDTH 333 0
DWIDTH 4 0
BBX 3 5 0 0
BITMAP
70
80
E0
80
80
00
ENDCHAR
STARTCHAR U+0067
ENCODING 103
SWIDTH 333 0
DWIDTH 4 0
BBX 4 4 0 -1
BITMAP
E8
A8
A8
70
00
00
ENDCHAR
STARTCHAR U+0068
ENCODING 104
SWIDTH 333 0
DWIDTH 4 0
BBX 4 5 0 0
BITMAP
80
80
B0
C8
98
00
ENDCHAR
STARTCHAR U+0069
ENCODING 105
SWIDTH 333 0
DWIDTH 4 0
BBX 3 5 0 0
BITMAP
C0
00
C0
40
C0
00
ENDCHAR
STARTCHAR U+006A
ENCODING 106
SWIDTH 333 0
DWIDTH 4 0
BBX 3 6 0 -1
BITMAP
60
00
60
20
20
C0
ENDCHAR
STARTCHAR U+006B
ENCODING 107
SWIDTH 333 0
DWIDTH 4 0
BBX 4 5 0 0
BITMAP
80
98
A8
D0
80
00
ENDCHAR
STARTCHAR U+006C
ENCODING 108
SWIDTH 333 0
DWIDTH 4 0
BBX 3 5 0 0
BITMAP
C0
40
40
40
E0
00
ENDCHAR
STARTCHAR U+006D
ENCODING 109
SWIDTH 333 0
DWIDTH 4 0
BBX 4 3 0 1
BITMAP
D8
B8
B8
00
00
00
ENDCHAR
STARTCHAR U+006E
ENCODING 110
SWIDTH 333 0
DWIDTH 4 0
BBX 4 3 0 1
BITMAP
D0
A8
A8
00
00
00
ENDCHAR
STARTCHAR U+006F
ENCODING 111
SWIDTH 333 0
DWIDTH 4 0
BBX 4 3 0 1
BITMAP
70
88
88
70
00
00
ENDCHAR
STARTCHAR U+0070
ENCODING 112
SWIDTH 333 0
DWIDTH 4 0
BBX 4 4 0 -1
BITMAP
D0
A8
A8
D0
80
00
ENDCHAR
STARTCHAR U+0071
ENCODING 113
SWIDTH 333 0
DWIDTH 4 0
BBX 4 4 0 -1
BITMAP
68
98
98
68
08
00
ENDCHAR
STARTCHAR U+0072
ENCODING 114
SWIDTH 333 0
DWIDTH 4 0
BBX 4 4 0 1
BITMAP
B0
C8
80
80
00
00
ENDCHAR
STARTCHAR U+0073
ENCODING 115
SWIDTH 333 0
DWIDTH 4 0
BBX 4 3 0 1
BITMAP
78
80
30
F0
00
00
ENDCHAR
STARTCHAR U+0074
ENCODING 116
SWIDTH 333 0
DWIDTH 4 0
BBX 3 4 0 1
BITMAP
80
E0
80
80
00
00
ENDCHAR
STARTCHAR U+0075
ENCODING 117
SWIDTH 333 0
DWIDTH 4 0
BBX 4 3 0 1
BITMAP
98
98
98
F8
00
00
ENDCHAR
STARTCHAR U+0076
ENCODING 118
SWIDTH 333 0
DWIDTH 4 0
BBX 4 3 0 1
BITMAP
98
98
60
40
00
00
ENDCHAR
STARTCHAR U+0077
ENCODING 119
SWIDTH 333 0
DWIDTH 4 0
BBX 4 3 0 1
BITMAP
98
A8
B8
60
00
00
ENDCHAR
STARTCHAR U+0078
ENCODING 120
SWIDTH 333 0
DWIDTH 4 0
BBX 4 3 0 1
BITMAP
98
60
60
98
00
00
ENDCHAR
STARTCHAR U+0079
ENCODING 121
SWIDTH 333 0
DWIDTH 4 0
BBX 4 4 0 -1
BITMAP
98
98
70
18
F0
00
ENDCHAR
STARTCHAR U+007A
ENCODING 122
SWIDTH 333 0
DWIDTH 4 0
BBX 4 3 0 1
BITMAP
F8
30
60
F8
00
00
ENDCHAR
STARTCHAR U+007B
ENCODING 123
SWIDTH 333 0
DWIDTH 4 0
BBX 3 5 0 -1
BITMAP
70
40
80
40
70
00
ENDCHAR
STARTCHAR U+007C
ENCODING 124
SWIDTH 333 0
DWIDTH 4 0
BBX 1 5 0 -1
BITMAP
40
40
40
40
40
00
ENDCHAR
STARTCHAR U+007D
ENCODING 125
SWIDTH 333 0
DWIDTH 4 0
BBX 3 5 0 -1
BITMAP
E0
40
20
40
E0
00
ENDCHAR
STARTCHAR U+007E
ENCODING 126
SWIDTH 333 0
DWIDTH 4 0
BBX 3 2 0 2
BITMAP
A0
40
00
00
00
00
ENDCHAR
ENDFONT
